<?xml version="1.0" encoding="UTF-8"?>
<svg id="Ebene_1" xmlns="http://www.w3.org/2000/svg" viewBox="0 0 1970.48 498.35">
  <defs>
    <style>
      .cls-1 {
        fill: #fff;
        stroke: #e30613;
        stroke-miterlimit: 10;
        stroke-width: 2px;
      }
    </style>
  </defs>
  <path class="cls-1" d="M271.71,162.05c-30.61,74.41-60.94,148.15-91.44,222.27,34.22,0,68.33.02,102.53-.04,1.96,0,2.96.36,3.78,2.44,13.15,34.08,27.45,67.76,40.3,101.92H1.51c43.64-103.12,87.44-206.12,131.1-309.22,17.86-42.54,35.78-85.04,54-127.42,5.47-12.94,10.64-26,16.32-38.85.62-1.51,1.51-2.05,3.18-2.05,45.26.05,90.52.05,135.78-.02,4.25-.48,8.45,18.26,11.08,22,16.15,38.21,31.57,76.73,47.71,114.94,46.51,113.63,94.79,226.98,140.79,340.61-46.1-1.18-95.71,3.42-140.51-1.96-43.2-108.27-86.6-216.11-129.26-324.64Z"/>
  <path class="cls-1" d="M1383.36,124.74c89.03-18.22,191.57,17.38,213.93,113.59,14.7,64.35,6.94,139.53-35.11,192.44-62.92,78.17-178.3,74.63-266.6,49.52-7.16-3.21-30.18-5.78-29.65-14.62-.03-151.51,0-303.03-.02-454.54-.36-3.93,1.96-7.77,6.32-7.56,13.83,2.48,116.65-6.28,112.18,5.94-.37,38.47-1.04,76.74-1.06,115.23ZM1384.49,231.83c1.83,52.58-4.19,109.84,2.08,160.25,28.66,6.45,61.65,2.42,81.98-20.76,16.78-18.9,21.4-44.88,19.88-69.46-1.72-58.58-50.61-84.05-103.93-70.03Z"/>
  <path class="cls-1" d="M735.18,126.95c0-39.9,0-79.73,0-119.63,0-4.92,1.38-6.32,6.22-6.32,33.25,0,66.5,0,99.75,0,4.43,0,5.3.89,5.3,5.41,0,142.14-.04,284.29.12,426.43.01,9.01,1.66,18,2.39,27.02.36,4.39.96,5.99-4.6,8.13-44.26,17.04-91.2,30.05-138.93,29.33-63.98-2.64-132.17-27.11-165.65-85.12-31.43-54.56-34.77-126.43-6.72-183.01,36.58-74.6,123.23-105.39,202.13-102.24ZM730.51,392.89c-2.07-52.11,4.66-116.05-2.32-164.55-16.35-2.51-33.3-1.35-49.32,2.69-33.5,7.58-49.92,41.26-48.93,73.47.68,20.67.46,42.5,11.26,60.93,17.47,30.73,58.03,32.07,89.32,27.47Z"/>
  <path class="cls-1" d="M1237.99,311.8c.01,88.11-45.64,166.26-137.4,181.33-44.41,7.64-91.69,4.97-133.22-13.57-87.44-38.79-106.12-152.98-80.97-236.65,19.15-65.97,83.07-110.45,150.54-113.63,122.77-10.33,200.43,58.59,200.72,182.46.11.02.22.04.33.06ZM1120.32,311.09c.39-50.08-18.62-91.24-75.72-83.25-59.4,6.18-61.94,99.91-39.14,140.42,12.19,21.56,37.76,29,61.17,25.78,40.58-3.18,55.03-47.99,53.69-82.95Z"/>
  <path class="cls-1" d="M1854.18,343.32c-34.93,0-69.87,0-104.8,0-4.03,0-4.06.05-2.82,3.75,7.41,19.14,24.32,33.05,42.51,41.53,37.45,17.58,79.49,9.54,117.58-1.52,11.26-2.93,22.46-6.1,33.7-9.11,4.66-1.25,6.25,0,6.25,4.79.08,26.56.01,53.12-.57,79.67-.1,4.89-2.93,9.7-8.57,11.63-115.06,46.64-269.17,17.61-303.46-116.77-18.33-75.39,6.6-165.98,77.23-205.5,41.33-22.79,93.24-30.38,138.64-16.26,66.85,20.05,119.68,84.91,119.61,155.49-1.5,15.32-.21,30.61-3.52,45.76-.99,5.71-2.48,6.53-8.31,6.53-34.49,0-68.98,0-103.47,0ZM1803.96,272.07v-.04c18.23,0,36.47,0,54.7,0,9.22,1.1-5.13-24.9-8.03-27.79-20.2-28.64-68.34-34.77-90.62-5.4-3.72,3.09-20.48,34.18-10.76,33.23,18.23,0,36.47,0,54.7,0Z"/>
</svg>